#!OML:ASF E:\Steps\Project 1\Capture day 1\Session 2\Subject.ASF
:FULLY-SPECIFIED
:DEGREES
94
root -1.08114 16.4251 21.5159 -155.708 12.3099 190.591
lowerback -19.1293 -3.0264 -7.97712
upperback 1.53005 -2.30816 1.57273
thorax 12.9581 -1.6839 5.64055
lowerneck -1.23001 -11.0778 1.17438
upperneck 18.9546 -14.9586 3.56293
head 6.16314 -6.58834 0.115377
rclavicle -7.15625e-015 6.04305e-014
rhumerus -42.3845 -16.1542 -78.5795
rradius 39.5822
rwrist -8.04373
rhand -9.03199 -52.9114
rfingers 7.12502
rthumb 16.9156 -82.1947
lclavicle -7.15625e-015 6.04305e-014
lhumerus -31.4591 1.16367 74.0377
lradius 28.2476
lwrist 0.827091
lhand -22.4692 -13.0151
lfingers 7.12502
lthumb 3.95572 16.9279
rfemur -58.6092 -8.27767 10.3224
rtibia 69.4109
rfoot -29.5062 -14.4119
rtoes -24.6038
lfemur -25.6137 -7.48014 -8.95597
ltibia 20.7852
lfoot -17.0279 11.6811
ltoes -10.1771
95
root -1.05838 16.4241 21.4951 -155.713 12.1124 190.844
lowerback -19.1757 -3.05535 -7.98909
upperback 1.52787 -2.3452 1.61626
thorax 12.9918 -1.70507 5.68499
lowerneck -1.46747 -11.1784 1.35418
upperneck 19.3241 -15.0918 3.35342
head 6.29336 -6.63112 -0.00606187
rclavicle -5.08889e-014 -2.38542e-014
rhumerus -42.5297 -16.3743 -78.3698
rradius 39.5077
rwrist -7.93226
rhand -9.07362 -52.755
rfingers 7.12502
rthumb 16.8756 -82.0417
lclavicle -5.08889e-014 -2.38542e-014
lhumerus -31.5278 0.799894 73.9961
lradius 28.3196
lwrist 1.19494
lhand -22.2897 -13.4149
lfingers 7.12502
lthumb 4.12901 16.5248
rfemur -58.4349 -8.83717 9.66267
rtibia 67.9795
rfoot -29.4088 -14.8013
rtoes -23.6512
lfemur -25.6653 -7.60235 -8.57521
ltibia 21.1615
lfoot -17.3118 11.6758
ltoes -9.83952
96
root -1.03361 16.4237 21.469 -155.745 11.9427 191.149
lowerback -19.1774 -3.08151 -7.96882
upperback 1.52163 -2.39344 1.68218
thorax 12.9961 -1.72922 5.73364
lowerneck -1.54984 -11.3289 1.33366
upperneck 19.5463 -15.3104 3.3908
head 6.38699 -6.72043 -0.0168215
rclavicle 1.59028e-015 2.06736e-014
rhumerus -42.6353 -16.4964 -78.1735
rradius 39.4418
rwrist -7.88114
rhand -8.83144 -52.855
rfingers 7.12502
rthumb 17.1087 -82.1217
lclavicle 1.59028e-015 2.06736e-014
lhumerus -31.6239 0.68318 73.8161
lradius 28.4564
lwrist 0.834044
lhand -21.4711 -13.1714
lfingers 7.12502
lthumb 4.91946 16.7515
rfemur -58.1423 -9.34985 9.06786
rtibia 66.2477
rfoot -28.5376 -15.4939
rtoes -24.1881
lfemur -25.6313 -7.64981 -8.15971
ltibia 21.5226
lfoot -17.5619 11.6138
ltoes -8.22427
97
root -0.996269 16.4267 21.4328 -155.768 12.1523 191.36
lowerback -19.4129 -3.07916 -8.25461
upperback 1.52232 -2.3055 1.72403
thorax 13.1368 -1.71597 5.97103
lowerneck -1.58056 -11.3598 1.27168
upperneck 19.7033 -15.3585 3.43848
head 6.45223 -6.73268 -0.00297733
rclavicle -1.39149e-014 3.49861e-014
rhumerus -42.7606 -16.5307 -77.9796
rradius 39.3564
rwrist -7.81418
rhand -8.73361 -52.8782
rfingers 7.12502
rthumb 17.2029 -82.1368
lclavicle -1.39149e-014 3.49861e-014
lhumerus -31.664 0.893372 73.5693
lradius 28.4944
lwrist -0.0170123
lhand -20.838 -12.939
lfingers 7.12502
lthumb 5.53075 16.9688
rfemur -57.917 -9.41738 8.2283
rtibia 64.6203
rfoot -27.6703 -15.848
rtoes -23.7749
lfemur -25.4381 -7.51515 -7.89693
ltibia 21.7763
lfoot -17.7768 11.8282
ltoes -7.89457
98
root -0.973874 16.4241 21.4149 -155.784 11.857 191.743
lowerback -19.2884 -3.09454 -8.07804
upperback 1.46871 -2.39042 1.81
thorax 13.0113 -1.73962 5.943
lowerneck -1.58573 -11.3702 1.28962
upperneck 19.834 -15.3775 3.47214
head 6.49702 -6.72706 -0.000294428
rclavicle 2.74323e-014 7.95139e-015
rhumerus -42.9555 -16.6696 -77.7955
rradius 39.288
rwrist -7.68454
rhand -8.75804 -52.7926
rfingers 7.12502
rthumb 17.1793 -82.0532
lclavicle 2.74323e-014 7.95139e-015
lhumerus -31.7395 0.89225 73.4081
lradius 28.4898
lwrist -0.128126
lhand -20.9472 -13.4865
lfingers 7.12502
lthumb 5.42537 16.424
rfemur -57.5049 -9.89144 7.67411
rtibia 63.1113
rfoot -27.4135 -15.5404
rtoes -21.627
lfemur -25.5346 -7.53563 -7.39829
ltibia 22.3162
lfoot -17.7667 12.0521
ltoes -11.0982
99
root -0.934238 16.4265 21.3872 -155.897 11.9777 191.705
lowerback -19.7261 -3.15405 -8.51369
upperback 1.6739 -2.30897 1.68845
thorax 13.5109 -1.75669 6.07331
lowerneck -1.53706 -11.3725 1.4791
upperneck 19.6385 -15.4181 3.62821
head 6.42547 -6.73389 0.0257151
rclavicle 1.78906e-014 4.29375e-014
rhumerus -42.8167 -16.9701 -77.8662
rradius 39.199
rwrist -7.49634
rhand -8.9176 -52.7072
rfingers 7.12502
rthumb 17.0258 -81.9811
lclavicle 1.78906e-014 4.29375e-014
lhumerus -31.5788 0.489705 73.2597
lradius 28.5303
lwrist 0.844789
lhand -21.4521 -14.2006
lfingers 7.12502
lthumb 4.93778 15.7219
rfemur -57.2251 -10.0778 6.59386
rtibia 61.6046
rfoot -26.9766 -15.7057
rtoes -21.3521
lfemur -25.3759 -7.51374 -7.37637
ltibia 22.5396
lfoot -17.781 12.2862
ltoes -12.0082
100
root -0.898725 16.4222 21.3595 -156.112 11.7738 192.189
lowerback -19.4677 -3.15976 -8.37379
upperback 1.64398 -2.39252 1.8075
thorax 13.3382 -1.78393 6.10626
lowerneck -1.2774 -11.3967 1.4461
upperneck 19.6158 -15.4396 3.72843
head 6.3856 -6.73936 0.0769737
rclavicle -1.19271e-015 -1.43125e-014
rhumerus -43.1297 -16.9986 -77.6813
rradius 39.1581
rwrist -7.42752
rhand -9.18111 -52.6081
rfingers 7.12502
rthumb 16.7721 -81.9036
lclavicle -1.19271e-015 -1.43125e-014
lhumerus -31.9706 0.128064 73.2014
lradius 28.8215
lwrist 1.67883
lhand -21.7254 -14.2124
lfingers 7.12502
lthumb 4.67391 15.7161
rfemur -56.486 -10.1568 6.1043
rtibia 59.7797
rfoot -26.2065 -15.8681
rtoes -21.3632
lfemur -24.9877 -7.55071 -6.71981
ltibia 22.7029
lfoot -18.0209 12.2116
ltoes -10.3873
101
root -0.88331 16.4199 21.3481 -156.055 11.4373 191.946
lowerback -19.2453 -3.36695 -8.74702
upperback 1.40535 -2.59282 1.77773
thorax 12.9857 -1.87392 6.22887
lowerneck -1.00572 -11.4238 1.29396
upperneck 19.6421 -15.4627 3.87022
head 6.37208 -6.74719 0.156964
rclavicle 8.34896e-015 -2.06736e-014
rhumerus -43.4978 -17.0158 -77.3823
rradius 39.1187
rwrist -7.482
rhand -9.25185 -52.5907
rfingers 7.12502
rthumb 16.704 -81.892
lclavicle 8.34896e-015 -2.06736e-014
lhumerus -32.4342 -0.225545 73.2043
lradius 29.3387
lwrist 2.09654
lhand -21.9248 -13.5624
lfingers 7.12502
lthumb 4.48136 16.3702
rfemur -56.1601 -11.0375 4.97175
rtibia 58.1545
rfoot -25.3769 -15.7751
rtoes -21.3729
lfemur -25.3743 -7.94446 -6.89331
ltibia 23.2691
lfoot -18.495 11.9575
ltoes -8.61242
102
root -0.854835 16.4145 21.34 -156.178 11.2765 191.895
lowerback -18.998 -3.52711 -9.02402
upperback 1.25774 -2.75956 1.74694
thorax 12.7161 -1.9494 6.30646
lowerneck -0.440455 -11.3952 1.03652
upperneck 19.5295 -15.3955 4.12142
head 6.27968 -6.72145 0.312986
rclavicle -1.19271e-015 2.06736e-014
rhumerus -43.8489 -16.9385 -77.2385
rradius 39.0627
rwrist -7.53028
rhand -9.12485 -52.5831
rfingers 7.12502
rthumb 16.8263 -81.8741
lclavicle -1.19271e-015 2.06736e-014
lhumerus -32.8674 -0.398607 73.0465
lradius 29.6742
lwrist 2.24881
lhand -22.3158 -13.1913
lfingers 7.12502
lthumb 4.10385 16.7489
rfemur -55.7269 -11.3895 3.98542
rtibia 56.6034
rfoot -24.4739 -15.8598
rtoes -22.5641
lfemur -25.5047 -8.06383 -6.85549
ltibia 23.8223
lfoot -18.9298 11.6634
ltoes -7.31071
103
root -0.810343 16.3522 21.1869 -156.136 11.1551 192.355
lowerback -21.2261 -3.79177 -8.3472
upperback 1.48155 -3.0601 1.81895
thorax 14.2932 -2.10397 5.85371
lowerneck 0.378289 -11.267 0.423646
upperneck 19.5012 -15.1416 4.27602
head 6.18532 -6.63553 0.515346
rclavicle -1.43125e-014 -4.13472e-014
rhumerus -44.239 -16.5226 -76.9903
rradius 39.0022
rwrist -7.5868
rhand -8.8954 -52.4252
rfingers 7.12502
rthumb 17.0471 -81.6972
lclavicle -1.43125e-014 -4.13472e-014
lhumerus -33.5525 0.0104435 72.8622
lradius 29.7983
lwrist 2.26021
lhand -22.6877 -13.5515
lfingers 7.12502
lthumb 3.74472 16.3954
rfemur -54.4575 -12.4051 3.56285
rtibia 54.1596
rfoot -23.3582 -14.6801
rtoes -23.3954
lfemur -24.1515 -8.36417 -6.83424
ltibia 22.9207
lfoot -19.1572 11.603
ltoes -6.39059
104
root -0.751596 16.3989 21.2451 -156.707 11.5901 193.078
lowerback -19.5226 -3.20696 -8.66968
upperback 1.93128 -2.37263 1.73662
thorax 13.7185 -1.82433 6.19837
lowerneck -1.60799 -11.5351 1.68152
upperneck 20.0262 -15.7302 4.0248
head 6.5872 -6.80435 0.0819473
rclavicle -5.60573e-014 -6.36111e-015
rhumerus -43.4848 -18.0518 -77.2125
rradius 38.9372
rwrist -7.34933
rhand -8.72736 -52.1568
rfingers 7.12502
rthumb 17.2089 -81.4148
lclavicle -5.60573e-014 -6.36111e-015
lhumerus -32.0685 -0.748892 72.5228
lradius 29.5859
lwrist 2.52948
lhand -23.0176 -14.4411
lfingers 7.12502
lthumb 3.42613 15.5112
rfemur -54.1699 -10.2508 3.08278
rtibia 52.9133
rfoot -22.9776 -15.5461
rtoes -19.5064
lfemur -24.0822 -7.57938 -5.45441
ltibia 23.9081
lfoot -19.3145 11.7007
ltoes -5.68032
